<mxfile host="app.diagrams.net" modified="2023-12-15T04:17:47.836Z" agent="Mozilla/5.0 (Windows NT 10.0; Win64; x64) AppleWebKit/537.36 (KHTML, like Gecko) Chrome/120.0.0.0 Safari/537.36" etag="e13wM_TXxx7XEkuKtcQQ" version="22.1.9" type="device">
  <diagram name="Trang-1" id="wGHR9g0vEZ7Tvko0YVtq">
    <mxGraphModel dx="3056" dy="2358" grid="1" gridSize="10" guides="1" tooltips="1" connect="1" arrows="1" fold="1" page="1" pageScale="1" pageWidth="850" pageHeight="1100" math="0" shadow="0">
      <root>
        <mxCell id="0" />
        <mxCell id="1" parent="0" />
        <mxCell id="xG7I9yB7lSo5u_yTw7F--1" value="&lt;b&gt;&lt;font style=&quot;font-size: 24px;&quot;&gt;Client App&lt;/font&gt;&lt;/b&gt;" style="rounded=1;whiteSpace=wrap;html=1;strokeWidth=3;fillColor=#b1ddf0;strokeColor=#10739e;" vertex="1" parent="1">
          <mxGeometry y="190" width="200" height="135" as="geometry" />
        </mxCell>
        <mxCell id="xG7I9yB7lSo5u_yTw7F--7" value="&lt;b style=&quot;font-size: 16px;&quot;&gt;NGINX Load&lt;br&gt;Balencer&lt;/b&gt;" style="rounded=1;whiteSpace=wrap;html=1;strokeWidth=1;fillColor=#009900;strokeColor=#005700;fontColor=#ffffff;" vertex="1" parent="1">
          <mxGeometry x="280" y="210" width="160" height="90" as="geometry" />
        </mxCell>
        <mxCell id="xG7I9yB7lSo5u_yTw7F--16" value="" style="group" vertex="1" connectable="0" parent="1">
          <mxGeometry x="520" y="120" width="600" height="200" as="geometry" />
        </mxCell>
        <mxCell id="xG7I9yB7lSo5u_yTw7F--8" value="" style="rounded=1;whiteSpace=wrap;html=1;dashed=1;dashPattern=8 8;fillColor=none;" vertex="1" parent="xG7I9yB7lSo5u_yTw7F--16">
          <mxGeometry width="600" height="200" as="geometry" />
        </mxCell>
        <mxCell id="xG7I9yB7lSo5u_yTw7F--9" value="" style="rounded=1;whiteSpace=wrap;html=1;strokeWidth=3;fillColor=#dae8fc;strokeColor=#6c8ebf;" vertex="1" parent="xG7I9yB7lSo5u_yTw7F--16">
          <mxGeometry x="189.6103896103896" y="52.63157894736842" width="301.29870129870125" height="63.1578947368421" as="geometry" />
        </mxCell>
        <mxCell id="xG7I9yB7lSo5u_yTw7F--11" value="" style="rounded=1;whiteSpace=wrap;html=1;strokeWidth=3;fillColor=#e1d5e7;strokeColor=#9673a6;" vertex="1" parent="xG7I9yB7lSo5u_yTw7F--16">
          <mxGeometry x="163.63636363636365" y="63.1578947368421" width="301.29870129870125" height="63.1578947368421" as="geometry" />
        </mxCell>
        <mxCell id="xG7I9yB7lSo5u_yTw7F--12" value="" style="rounded=1;whiteSpace=wrap;html=1;strokeWidth=3;fillColor=#fff2cc;strokeColor=#d6b656;" vertex="1" parent="xG7I9yB7lSo5u_yTw7F--16">
          <mxGeometry x="142.85714285714286" y="73.68421052631578" width="301.29870129870125" height="63.1578947368421" as="geometry" />
        </mxCell>
        <mxCell id="xG7I9yB7lSo5u_yTw7F--15" value="&lt;font style=&quot;font-size: 24px;&quot;&gt;&lt;b&gt;Auction App&amp;nbsp;&lt;br&gt;Server&lt;/b&gt;&lt;/font&gt;" style="rounded=1;whiteSpace=wrap;html=1;strokeWidth=3;fillColor=#dae8fc;strokeColor=#6c8ebf;" vertex="1" parent="xG7I9yB7lSo5u_yTw7F--16">
          <mxGeometry x="122.07792207792207" y="84.21052631578947" width="301.29870129870125" height="63.1578947368421" as="geometry" />
        </mxCell>
        <mxCell id="xG7I9yB7lSo5u_yTw7F--19" value="&lt;b style=&quot;font-size: 20px;&quot;&gt;Elasticsearch&lt;br&gt;Service&lt;br&gt;&lt;/b&gt;" style="rounded=1;whiteSpace=wrap;html=1;strokeWidth=3;fillColor=#e3c800;fontColor=#000000;strokeColor=#B09500;" vertex="1" parent="1">
          <mxGeometry x="1000" y="430" width="200" height="80" as="geometry" />
        </mxCell>
        <mxCell id="xG7I9yB7lSo5u_yTw7F--20" value="&lt;font style=&quot;font-size: 16px;&quot;&gt;Database&amp;nbsp;&lt;br&gt;Mysql&lt;/font&gt;" style="shape=cylinder3;whiteSpace=wrap;html=1;boundedLbl=1;backgroundOutline=1;size=15;fontStyle=1;fillColor=#b1ddf0;strokeColor=#10739e;" vertex="1" parent="1">
          <mxGeometry x="1200" y="120" width="80" height="100" as="geometry" />
        </mxCell>
        <mxCell id="xG7I9yB7lSo5u_yTw7F--22" value="&lt;span style=&quot;font-size: 16px;&quot;&gt;Caching&amp;nbsp;&lt;br&gt;Service&lt;br&gt;&lt;/span&gt;" style="shape=cylinder3;whiteSpace=wrap;html=1;boundedLbl=1;backgroundOutline=1;size=15;fontStyle=1;fillColor=#fad9d5;strokeColor=#ae4132;" vertex="1" parent="1">
          <mxGeometry x="1200" y="240" width="80" height="90" as="geometry" />
        </mxCell>
        <mxCell id="xG7I9yB7lSo5u_yTw7F--23" value="&lt;font style=&quot;font-size: 12px;&quot;&gt;Apache Kafka&lt;/font&gt;" style="shape=cylinder3;whiteSpace=wrap;html=1;boundedLbl=1;backgroundOutline=1;size=15;fontStyle=1;fillColor=#b1ddf0;strokeColor=#10739e;" vertex="1" parent="1">
          <mxGeometry x="600" y="360" width="40" height="120" as="geometry" />
        </mxCell>
        <mxCell id="xG7I9yB7lSo5u_yTw7F--24" value="&lt;font style=&quot;font-size: 16px;&quot;&gt;Job Server&lt;/font&gt;" style="swimlane;whiteSpace=wrap;html=1;fillColor=#e6d0de;gradientColor=#d5739d;strokeColor=#996185;dashed=1;" vertex="1" parent="1">
          <mxGeometry x="520" y="520" width="200" height="200" as="geometry" />
        </mxCell>
        <mxCell id="xG7I9yB7lSo5u_yTw7F--31" value="&lt;b&gt;&lt;font style=&quot;font-size: 16px;&quot;&gt;Elasticsearch Job&lt;/font&gt;&lt;br&gt;&lt;/b&gt;" style="rounded=1;whiteSpace=wrap;html=1;strokeWidth=3;fillColor=#eeeeee;strokeColor=#36393d;" vertex="1" parent="xG7I9yB7lSo5u_yTw7F--24">
          <mxGeometry x="40" y="50" width="120" height="60" as="geometry" />
        </mxCell>
        <mxCell id="xG7I9yB7lSo5u_yTw7F--32" value="&lt;b&gt;&lt;font style=&quot;font-size: 16px;&quot;&gt;Auction Job&lt;/font&gt;&lt;br&gt;&lt;/b&gt;" style="rounded=1;whiteSpace=wrap;html=1;strokeWidth=3;fillColor=#fff2cc;strokeColor=#d6b656;" vertex="1" parent="xG7I9yB7lSo5u_yTw7F--24">
          <mxGeometry x="40" y="130" width="120" height="60" as="geometry" />
        </mxCell>
        <mxCell id="xG7I9yB7lSo5u_yTw7F--33" value="&lt;font style=&quot;font-size: 16px;&quot;&gt;CronJob Server&lt;/font&gt;" style="swimlane;whiteSpace=wrap;html=1;fillColor=#dae8fc;gradientColor=#7ea6e0;strokeColor=#6c8ebf;strokeWidth=2;dashed=1;startSize=23;" vertex="1" parent="1">
          <mxGeometry x="760" y="430" width="200" height="290" as="geometry" />
        </mxCell>
        <mxCell id="xG7I9yB7lSo5u_yTw7F--34" value="&lt;b&gt;&lt;font style=&quot;font-size: 16px;&quot;&gt;Auction Cronjob&lt;/font&gt;&lt;br&gt;&lt;/b&gt;" style="rounded=1;whiteSpace=wrap;html=1;strokeWidth=3;fillColor=#e3c800;fontColor=#000000;strokeColor=#B09500;" vertex="1" parent="xG7I9yB7lSo5u_yTw7F--33">
          <mxGeometry x="40" y="50" width="120" height="60" as="geometry" />
        </mxCell>
        <mxCell id="xG7I9yB7lSo5u_yTw7F--35" value="&lt;b&gt;&lt;font style=&quot;font-size: 16px;&quot;&gt;User Cronjob&lt;/font&gt;&lt;br&gt;&lt;/b&gt;" style="rounded=1;whiteSpace=wrap;html=1;strokeWidth=3;fillColor=#fad9d5;strokeColor=#ae4132;" vertex="1" parent="xG7I9yB7lSo5u_yTw7F--33">
          <mxGeometry x="40" y="130" width="120" height="60" as="geometry" />
        </mxCell>
        <mxCell id="xG7I9yB7lSo5u_yTw7F--36" value="&lt;b&gt;&lt;font style=&quot;font-size: 16px;&quot;&gt;App Cronjob&lt;/font&gt;&lt;br&gt;&lt;/b&gt;" style="rounded=1;whiteSpace=wrap;html=1;strokeWidth=3;fillColor=#f8cecc;strokeColor=#b85450;gradientColor=#ea6b66;" vertex="1" parent="xG7I9yB7lSo5u_yTw7F--33">
          <mxGeometry x="40" y="210" width="120" height="60" as="geometry" />
        </mxCell>
        <mxCell id="xG7I9yB7lSo5u_yTw7F--38" value="" style="endArrow=classic;html=1;rounded=0;startArrow=classicThin;startFill=1;strokeColor=#007FFF;strokeWidth=2;" edge="1" parent="1" source="xG7I9yB7lSo5u_yTw7F--23">
          <mxGeometry width="50" height="50" relative="1" as="geometry">
            <mxPoint x="619" y="350" as="sourcePoint" />
            <mxPoint x="619" y="324" as="targetPoint" />
          </mxGeometry>
        </mxCell>
        <mxCell id="xG7I9yB7lSo5u_yTw7F--40" value="" style="endArrow=classic;html=1;rounded=0;startArrow=classicThin;startFill=1;strokeColor=#007FFF;exitX=0.5;exitY=0;exitDx=0;exitDy=0;strokeWidth=2;" edge="1" parent="1" source="xG7I9yB7lSo5u_yTw7F--24">
          <mxGeometry width="50" height="50" relative="1" as="geometry">
            <mxPoint x="629" y="370" as="sourcePoint" />
            <mxPoint x="620" y="480" as="targetPoint" />
          </mxGeometry>
        </mxCell>
        <mxCell id="xG7I9yB7lSo5u_yTw7F--42" value="" style="endArrow=classic;html=1;rounded=0;startArrow=classicThin;startFill=1;strokeColor=#007FFF;strokeWidth=3;exitX=0.45;exitY=-0.003;exitDx=0;exitDy=0;exitPerimeter=0;" edge="1" parent="1" source="xG7I9yB7lSo5u_yTw7F--33">
          <mxGeometry width="50" height="50" relative="1" as="geometry">
            <mxPoint x="850" y="390" as="sourcePoint" />
            <mxPoint x="850" y="320" as="targetPoint" />
          </mxGeometry>
        </mxCell>
        <mxCell id="xG7I9yB7lSo5u_yTw7F--44" value="" style="endArrow=classic;html=1;rounded=0;startArrow=classicThin;startFill=1;strokeColor=#007FFF;strokeWidth=3;" edge="1" parent="1">
          <mxGeometry width="50" height="50" relative="1" as="geometry">
            <mxPoint x="1095" y="420" as="sourcePoint" />
            <mxPoint x="1094.5" y="320" as="targetPoint" />
            <Array as="points">
              <mxPoint x="1094.5" y="320" />
            </Array>
          </mxGeometry>
        </mxCell>
        <mxCell id="xG7I9yB7lSo5u_yTw7F--48" value="Auction App Server" style="swimlane;whiteSpace=wrap;html=1;fillColor=#f0a30a;strokeColor=#BD7000;fontColor=#000000;fontSize=16;rounded=1;shadow=0;swimlaneLine=0;glass=0;" vertex="1" parent="1">
          <mxGeometry x="520" y="-210" width="290" height="200" as="geometry" />
        </mxCell>
        <mxCell id="xG7I9yB7lSo5u_yTw7F--49" value="&lt;b&gt;Socket&lt;br&gt;Server&lt;br&gt;&lt;/b&gt;" style="rounded=1;whiteSpace=wrap;html=1;strokeWidth=1;fillColor=#d0cee2;strokeColor=#56517e;fontSize=16;" vertex="1" parent="xG7I9yB7lSo5u_yTw7F--48">
          <mxGeometry x="10" y="50" width="120" height="60" as="geometry" />
        </mxCell>
        <mxCell id="xG7I9yB7lSo5u_yTw7F--50" value="&lt;b style=&quot;font-size: 16px;&quot;&gt;Auction&lt;br&gt;Server&lt;br&gt;&lt;/b&gt;" style="rounded=1;whiteSpace=wrap;html=1;strokeWidth=1;fillColor=#b0e3e6;strokeColor=#0e8088;" vertex="1" parent="xG7I9yB7lSo5u_yTw7F--48">
          <mxGeometry x="163.51" y="50" width="120" height="60" as="geometry" />
        </mxCell>
        <mxCell id="xG7I9yB7lSo5u_yTw7F--51" value="&lt;b&gt;&lt;font style=&quot;font-size: 16px;&quot;&gt;Admin&lt;br&gt;Server&lt;br&gt;&lt;/font&gt;&lt;/b&gt;" style="rounded=1;whiteSpace=wrap;html=1;strokeWidth=1;fillColor=#fad9d5;strokeColor=#ae4132;" vertex="1" parent="xG7I9yB7lSo5u_yTw7F--48">
          <mxGeometry x="85" y="130" width="120" height="60" as="geometry" />
        </mxCell>
        <mxCell id="xG7I9yB7lSo5u_yTw7F--52" value="" style="html=1;shadow=0;dashed=0;align=center;verticalAlign=middle;shape=mxgraph.arrows2.arrow;dy=0.6;dx=40;notch=0;rotation=-90;" vertex="1" parent="1">
          <mxGeometry x="600" y="20" width="120" height="70" as="geometry" />
        </mxCell>
        <mxCell id="xG7I9yB7lSo5u_yTw7F--53" value="Services" style="swimlane;whiteSpace=wrap;html=1;fillColor=#f8cecc;strokeColor=#b85450;fontSize=16;rounded=1;shadow=0;swimlaneLine=0;glass=0;gradientColor=#ea6b66;" vertex="1" parent="1">
          <mxGeometry x="840" y="-210" width="300" height="280" as="geometry" />
        </mxCell>
        <mxCell id="xG7I9yB7lSo5u_yTw7F--54" value="&lt;b style=&quot;border-color: var(--border-color);&quot;&gt;Auth &lt;br&gt;Service&lt;/b&gt;&lt;b&gt;&lt;br&gt;&lt;/b&gt;" style="rounded=1;whiteSpace=wrap;html=1;strokeWidth=1;fillColor=#e3c800;strokeColor=#B09500;fontSize=16;fontColor=#000000;" vertex="1" parent="xG7I9yB7lSo5u_yTw7F--53">
          <mxGeometry x="20.91" y="40" width="120" height="40" as="geometry" />
        </mxCell>
        <mxCell id="xG7I9yB7lSo5u_yTw7F--57" value="&lt;b style=&quot;border-color: var(--border-color);&quot;&gt;Auction Service&lt;/b&gt;&lt;b&gt;&lt;br&gt;&lt;/b&gt;" style="rounded=1;whiteSpace=wrap;html=1;strokeWidth=1;fillColor=#dae8fc;strokeColor=#6c8ebf;fontSize=16;" vertex="1" parent="xG7I9yB7lSo5u_yTw7F--53">
          <mxGeometry x="20.909999999999968" y="100" width="120" height="40" as="geometry" />
        </mxCell>
        <mxCell id="xG7I9yB7lSo5u_yTw7F--58" value="&lt;b style=&quot;border-color: var(--border-color);&quot;&gt;Notification Service&lt;/b&gt;&lt;b&gt;&lt;br&gt;&lt;/b&gt;" style="rounded=1;whiteSpace=wrap;html=1;strokeWidth=1;fillColor=#d0cee2;strokeColor=#56517e;fontSize=16;" vertex="1" parent="xG7I9yB7lSo5u_yTw7F--53">
          <mxGeometry x="20.909999999999968" y="160" width="120" height="40" as="geometry" />
        </mxCell>
        <mxCell id="xG7I9yB7lSo5u_yTw7F--60" value="&lt;b style=&quot;border-color: var(--border-color);&quot;&gt;Message Service&lt;/b&gt;&lt;b&gt;&lt;br&gt;&lt;/b&gt;" style="rounded=1;whiteSpace=wrap;html=1;strokeWidth=1;fillColor=#f8cecc;strokeColor=#b85450;fontSize=16;" vertex="1" parent="xG7I9yB7lSo5u_yTw7F--53">
          <mxGeometry x="20.909999999999968" y="220" width="120" height="40" as="geometry" />
        </mxCell>
        <mxCell id="xG7I9yB7lSo5u_yTw7F--61" value="&lt;b style=&quot;border-color: var(--border-color);&quot;&gt;Mail &lt;br&gt;Service&lt;/b&gt;&lt;b&gt;&lt;br&gt;&lt;/b&gt;" style="rounded=1;whiteSpace=wrap;html=1;strokeWidth=1;fillColor=#d5e8d4;strokeColor=#82b366;fontSize=16;" vertex="1" parent="xG7I9yB7lSo5u_yTw7F--53">
          <mxGeometry x="160" y="40" width="120" height="40" as="geometry" />
        </mxCell>
        <mxCell id="xG7I9yB7lSo5u_yTw7F--62" value="&lt;b style=&quot;border-color: var(--border-color);&quot;&gt;Log&lt;br&gt;Service&lt;/b&gt;&lt;b&gt;&lt;br&gt;&lt;/b&gt;" style="rounded=1;whiteSpace=wrap;html=1;strokeWidth=1;fillColor=#f5f5f5;strokeColor=#666666;fontSize=16;fontColor=#333333;" vertex="1" parent="xG7I9yB7lSo5u_yTw7F--53">
          <mxGeometry x="160" y="100" width="120" height="40" as="geometry" />
        </mxCell>
        <mxCell id="xG7I9yB7lSo5u_yTw7F--63" value="&lt;b style=&quot;border-color: var(--border-color);&quot;&gt;System&lt;br&gt;Service&lt;/b&gt;&lt;b&gt;&lt;br&gt;&lt;/b&gt;" style="rounded=1;whiteSpace=wrap;html=1;strokeWidth=1;fillColor=#e1d5e7;strokeColor=#9673a6;fontSize=16;" vertex="1" parent="xG7I9yB7lSo5u_yTw7F--53">
          <mxGeometry x="160" y="160" width="120" height="40" as="geometry" />
        </mxCell>
        <mxCell id="xG7I9yB7lSo5u_yTw7F--64" value="&lt;b style=&quot;border-color: var(--border-color);&quot;&gt;Admin&lt;br&gt;Service&lt;/b&gt;&lt;b&gt;&lt;br&gt;&lt;/b&gt;" style="rounded=1;whiteSpace=wrap;html=1;strokeWidth=1;fillColor=#fff2cc;strokeColor=#d6b656;fontSize=16;" vertex="1" parent="xG7I9yB7lSo5u_yTw7F--53">
          <mxGeometry x="160" y="220" width="120" height="40" as="geometry" />
        </mxCell>
        <mxCell id="xG7I9yB7lSo5u_yTw7F--65" value="&lt;font style=&quot;font-size: 16px;&quot;&gt;Cloud&lt;br&gt;Storage&lt;/font&gt;" style="shape=cylinder3;whiteSpace=wrap;html=1;boundedLbl=1;backgroundOutline=1;size=15;fontStyle=1;fillColor=#e3c800;strokeColor=#B09500;fontColor=#000000;" vertex="1" parent="1">
          <mxGeometry x="1200" y="-70" width="80" height="100" as="geometry" />
        </mxCell>
        <mxCell id="xG7I9yB7lSo5u_yTw7F--75" value="&lt;font style=&quot;font-size: 16px;&quot;&gt;Normal FLow&lt;/font&gt;" style="swimlane;whiteSpace=wrap;html=1;" vertex="1" parent="1">
          <mxGeometry x="520" y="-390" width="800" height="140" as="geometry" />
        </mxCell>
        <mxCell id="xG7I9yB7lSo5u_yTw7F--76" value="&lt;b&gt;Authenticate&lt;br&gt;&lt;/b&gt;" style="rounded=1;whiteSpace=wrap;html=1;strokeWidth=1;fillColor=#dae8fc;strokeColor=#6c8ebf;fontSize=16;" vertex="1" parent="xG7I9yB7lSo5u_yTw7F--75">
          <mxGeometry x="29.999999999999993" y="40" width="120" height="40" as="geometry" />
        </mxCell>
        <mxCell id="xG7I9yB7lSo5u_yTw7F--77" value="&lt;b&gt;Authorization&lt;br&gt;&lt;/b&gt;" style="rounded=1;whiteSpace=wrap;html=1;strokeWidth=1;fillColor=#d5e8d4;strokeColor=#82b366;fontSize=16;" vertex="1" parent="xG7I9yB7lSo5u_yTw7F--75">
          <mxGeometry x="189.99999999999997" y="40" width="120" height="40" as="geometry" />
        </mxCell>
        <mxCell id="xG7I9yB7lSo5u_yTw7F--78" value="&lt;b&gt;Controller&lt;br&gt;&lt;/b&gt;" style="rounded=1;whiteSpace=wrap;html=1;strokeWidth=1;fillColor=#ffe6cc;strokeColor=#d79b00;fontSize=16;" vertex="1" parent="xG7I9yB7lSo5u_yTw7F--75">
          <mxGeometry x="350" y="40" width="120" height="40" as="geometry" />
        </mxCell>
        <mxCell id="xG7I9yB7lSo5u_yTw7F--79" value="&lt;b&gt;Service&lt;br&gt;&lt;/b&gt;" style="rounded=1;whiteSpace=wrap;html=1;strokeWidth=1;fillColor=#fff2cc;strokeColor=#d6b656;fontSize=16;" vertex="1" parent="xG7I9yB7lSo5u_yTw7F--75">
          <mxGeometry x="510" y="40" width="120" height="40" as="geometry" />
        </mxCell>
        <mxCell id="xG7I9yB7lSo5u_yTw7F--80" value="&lt;b&gt;Model&lt;br&gt;&lt;/b&gt;" style="rounded=1;whiteSpace=wrap;html=1;strokeWidth=1;fillColor=#f8cecc;strokeColor=#b85450;fontSize=16;" vertex="1" parent="xG7I9yB7lSo5u_yTw7F--75">
          <mxGeometry x="670" y="40" width="120" height="40" as="geometry" />
        </mxCell>
        <mxCell id="xG7I9yB7lSo5u_yTw7F--81" value="&lt;b&gt;Other Services&lt;br&gt;&lt;/b&gt;" style="rounded=1;whiteSpace=wrap;html=1;strokeWidth=1;fillColor=#e1d5e7;strokeColor=#9673a6;fontSize=16;" vertex="1" parent="xG7I9yB7lSo5u_yTw7F--75">
          <mxGeometry x="510" y="100" width="120" height="40" as="geometry" />
        </mxCell>
        <mxCell id="xG7I9yB7lSo5u_yTw7F--84" value="" style="endArrow=classic;html=1;rounded=0;startArrow=none;startFill=0;strokeColor=#007FFF;strokeWidth=2;entryX=0;entryY=0.5;entryDx=0;entryDy=0;exitX=1;exitY=0.5;exitDx=0;exitDy=0;" edge="1" parent="xG7I9yB7lSo5u_yTw7F--75" source="xG7I9yB7lSo5u_yTw7F--76" target="xG7I9yB7lSo5u_yTw7F--77">
          <mxGeometry width="50" height="50" relative="1" as="geometry">
            <mxPoint x="109" y="760" as="sourcePoint" />
            <mxPoint x="109" y="724" as="targetPoint" />
          </mxGeometry>
        </mxCell>
        <mxCell id="xG7I9yB7lSo5u_yTw7F--86" value="" style="endArrow=classic;html=1;rounded=0;startArrow=none;startFill=0;strokeColor=#007FFF;strokeWidth=2;entryX=0;entryY=0.5;entryDx=0;entryDy=0;exitX=1;exitY=0.5;exitDx=0;exitDy=0;" edge="1" parent="xG7I9yB7lSo5u_yTw7F--75">
          <mxGeometry width="50" height="50" relative="1" as="geometry">
            <mxPoint x="310" y="59.410000000000025" as="sourcePoint" />
            <mxPoint x="350" y="59.410000000000025" as="targetPoint" />
          </mxGeometry>
        </mxCell>
        <mxCell id="xG7I9yB7lSo5u_yTw7F--87" value="" style="endArrow=classic;html=1;rounded=0;startArrow=none;startFill=0;strokeColor=#007FFF;strokeWidth=2;entryX=0;entryY=0.5;entryDx=0;entryDy=0;exitX=1;exitY=0.5;exitDx=0;exitDy=0;" edge="1" parent="xG7I9yB7lSo5u_yTw7F--75">
          <mxGeometry width="50" height="50" relative="1" as="geometry">
            <mxPoint x="470" y="59.410000000000025" as="sourcePoint" />
            <mxPoint x="510" y="59.410000000000025" as="targetPoint" />
          </mxGeometry>
        </mxCell>
        <mxCell id="xG7I9yB7lSo5u_yTw7F--88" value="" style="endArrow=classic;html=1;rounded=0;startArrow=none;startFill=0;strokeColor=#007FFF;strokeWidth=2;entryX=0;entryY=0.5;entryDx=0;entryDy=0;exitX=1;exitY=0.5;exitDx=0;exitDy=0;" edge="1" parent="xG7I9yB7lSo5u_yTw7F--75">
          <mxGeometry width="50" height="50" relative="1" as="geometry">
            <mxPoint x="630" y="59.410000000000025" as="sourcePoint" />
            <mxPoint x="670" y="59.410000000000025" as="targetPoint" />
          </mxGeometry>
        </mxCell>
        <mxCell id="xG7I9yB7lSo5u_yTw7F--89" value="" style="endArrow=classic;html=1;rounded=0;startArrow=none;startFill=0;strokeColor=#007FFF;strokeWidth=2;entryX=0.5;entryY=0;entryDx=0;entryDy=0;exitX=0.5;exitY=1;exitDx=0;exitDy=0;" edge="1" parent="xG7I9yB7lSo5u_yTw7F--75" source="xG7I9yB7lSo5u_yTw7F--79" target="xG7I9yB7lSo5u_yTw7F--81">
          <mxGeometry width="50" height="50" relative="1" as="geometry">
            <mxPoint x="640" y="69.41000000000003" as="sourcePoint" />
            <mxPoint x="680" y="69.41000000000003" as="targetPoint" />
          </mxGeometry>
        </mxCell>
        <mxCell id="xG7I9yB7lSo5u_yTw7F--91" value="" style="endArrow=classic;html=1;rounded=0;startArrow=none;startFill=0;strokeColor=#007FFF;strokeWidth=2;entryX=0.5;entryY=1;entryDx=0;entryDy=0;exitX=0.5;exitY=0;exitDx=0;exitDy=0;" edge="1" parent="1" source="xG7I9yB7lSo5u_yTw7F--53" target="xG7I9yB7lSo5u_yTw7F--75">
          <mxGeometry width="50" height="50" relative="1" as="geometry">
            <mxPoint x="1100" y="-300" as="sourcePoint" />
            <mxPoint x="1100" y="-280" as="targetPoint" />
          </mxGeometry>
        </mxCell>
        <mxCell id="xG7I9yB7lSo5u_yTw7F--93" value="" style="endArrow=classic;html=1;rounded=0;startArrow=classicThin;startFill=1;strokeColor=#007FFF;strokeWidth=3;exitX=1.009;exitY=0.298;exitDx=0;exitDy=0;exitPerimeter=0;entryX=0;entryY=0.596;entryDx=0;entryDy=0;entryPerimeter=0;" edge="1" parent="1" source="xG7I9yB7lSo5u_yTw7F--8" target="xG7I9yB7lSo5u_yTw7F--20">
          <mxGeometry width="50" height="50" relative="1" as="geometry">
            <mxPoint x="860" y="439" as="sourcePoint" />
            <mxPoint x="860" y="330" as="targetPoint" />
          </mxGeometry>
        </mxCell>
        <mxCell id="xG7I9yB7lSo5u_yTw7F--95" value="" style="endArrow=classic;html=1;rounded=0;startArrow=classicThin;startFill=1;strokeColor=#007FFF;strokeWidth=3;exitX=1.017;exitY=0.8;exitDx=0;exitDy=0;exitPerimeter=0;" edge="1" parent="1" source="xG7I9yB7lSo5u_yTw7F--8">
          <mxGeometry width="50" height="50" relative="1" as="geometry">
            <mxPoint x="1135" y="190" as="sourcePoint" />
            <mxPoint x="1190" y="280" as="targetPoint" />
          </mxGeometry>
        </mxCell>
        <mxCell id="xG7I9yB7lSo5u_yTw7F--99" value="" style="endArrow=classic;html=1;rounded=0;startArrow=classicThin;startFill=1;strokeColor=#007FFF;strokeWidth=3;" edge="1" parent="1">
          <mxGeometry width="50" height="50" relative="1" as="geometry">
            <mxPoint x="1239.79" y="130" as="sourcePoint" />
            <mxPoint x="1239.29" y="30" as="targetPoint" />
            <Array as="points">
              <mxPoint x="1239.29" y="30" />
            </Array>
          </mxGeometry>
        </mxCell>
        <mxCell id="xG7I9yB7lSo5u_yTw7F--100" value="&lt;b&gt;&lt;font style=&quot;font-size: 24px;&quot;&gt;Admin App&lt;/font&gt;&lt;/b&gt;" style="rounded=1;whiteSpace=wrap;html=1;strokeWidth=3;fillColor=#fad7ac;strokeColor=#b46504;" vertex="1" parent="1">
          <mxGeometry y="-120" width="200" height="140" as="geometry" />
        </mxCell>
        <mxCell id="xG7I9yB7lSo5u_yTw7F--101" value="" style="endArrow=classic;html=1;rounded=0;startArrow=classicThin;startFill=1;strokeColor=#007FFF;strokeWidth=3;exitX=1.009;exitY=0.298;exitDx=0;exitDy=0;exitPerimeter=0;entryX=0;entryY=0.596;entryDx=0;entryDy=0;entryPerimeter=0;" edge="1" parent="1">
          <mxGeometry width="50" height="50" relative="1" as="geometry">
            <mxPoint x="445" y="254.57999999999998" as="sourcePoint" />
            <mxPoint x="520" y="254.57999999999998" as="targetPoint" />
          </mxGeometry>
        </mxCell>
        <mxCell id="xG7I9yB7lSo5u_yTw7F--102" value="" style="endArrow=classic;html=1;rounded=0;startArrow=classicThin;startFill=1;strokeColor=#007FFF;strokeWidth=3;exitX=1.009;exitY=0.298;exitDx=0;exitDy=0;exitPerimeter=0;entryX=0;entryY=0.596;entryDx=0;entryDy=0;entryPerimeter=0;" edge="1" parent="1">
          <mxGeometry width="50" height="50" relative="1" as="geometry">
            <mxPoint x="205" y="254.57999999999998" as="sourcePoint" />
            <mxPoint x="280" y="254.57999999999998" as="targetPoint" />
          </mxGeometry>
        </mxCell>
        <mxCell id="xG7I9yB7lSo5u_yTw7F--103" value="" style="endArrow=classic;html=1;rounded=0;startArrow=classicThin;startFill=1;strokeColor=#007FFF;strokeWidth=3;exitX=1;exitY=0.5;exitDx=0;exitDy=0;edgeStyle=entityRelationEdgeStyle;" edge="1" parent="1" source="xG7I9yB7lSo5u_yTw7F--100" target="xG7I9yB7lSo5u_yTw7F--8">
          <mxGeometry width="50" height="50" relative="1" as="geometry">
            <mxPoint x="300" as="sourcePoint" />
            <mxPoint x="375" as="targetPoint" />
          </mxGeometry>
        </mxCell>
        <mxCell id="xG7I9yB7lSo5u_yTw7F--104" value="" style="endArrow=classic;html=1;rounded=0;startArrow=classicThin;startFill=1;strokeColor=#007FFF;strokeWidth=3;" edge="1" parent="1">
          <mxGeometry width="50" height="50" relative="1" as="geometry">
            <mxPoint x="989" y="110" as="sourcePoint" />
            <mxPoint x="989.23" y="70" as="targetPoint" />
          </mxGeometry>
        </mxCell>
      </root>
    </mxGraphModel>
  </diagram>
</mxfile>
